<svg width="34" height="32" viewBox="0 0 34 32" fill="none" xmlns="http://www.w3.org/2000/svg">
<path d="M11.792 0C12.8479 0.00015082 13.7041 0.859664 13.7041 1.91992V5.75977C13.7041 6.46664 14.2745 7.03996 14.9785 7.04004H16.8906C17.5947 7.04004 18.166 6.46669 18.166 5.75977V1.91992C18.1661 0.859571 19.0221 0 20.0781 0H28.6826C30.4427 3.78992e-05 31.8691 1.43291 31.8691 3.2002V11.2607C30.8675 11.0622 29.7887 11.3506 29.0117 12.126L19.7461 21.373L17.5195 19.1504C16.2824 17.9158 14.2791 17.9157 13.042 19.1504C11.8009 20.3893 11.8009 22.4017 13.042 23.6406L17.125 27.7158C18.5735 29.1615 20.9196 29.1615 22.3682 27.7158L31.8691 18.2314V28.7998C31.8691 30.5671 30.4427 32 28.6826 32H3.18652C1.42662 31.9998 2.56639e-08 30.567 0 28.7998V19.5195C0.000252014 18.4594 0.85623 17.5996 1.91211 17.5996H7.01172C7.71546 17.5994 8.28596 17.0269 8.28613 16.3203V14.4004C8.28613 13.6936 7.71556 13.1203 7.01172 13.1201H1.91211C0.85614 13.1201 0.000105249 12.2605 0 11.2002V3.2002C4.10623e-07 1.43303 1.42662 0.000231365 3.18652 0H11.792ZM3.82422 21.7598C3.12023 21.7598 2.5498 22.3332 2.5498 23.04V28.1602C2.54989 28.867 3.12029 29.4404 3.82422 29.4404H8.92383C9.62765 29.4402 10.1982 28.8669 10.1982 28.1602V23.04C10.1982 22.3332 9.6277 21.76 8.92383 21.7598H3.82422ZM12.1104 26.2402C11.7584 26.2403 11.4727 26.5265 11.4727 26.8799V28.7998C11.4727 29.1532 11.7584 29.4404 12.1104 29.4404H14.0225C14.3745 29.4404 14.6602 29.1533 14.6602 28.7998V26.8799C14.6601 26.5265 14.3744 26.2402 14.0225 26.2402H12.1104ZM11.4727 10.8799C11.121 10.8801 10.8362 11.1664 10.8359 11.5195V15.3604C10.8361 15.7135 11.1209 15.9998 11.4727 16H15.2969C15.6488 16 15.9344 15.7137 15.9346 15.3604V11.5195C15.9343 11.1663 15.6487 10.8799 15.2969 10.8799H11.4727ZM20.3965 11.5195C20.0445 11.5195 19.7588 11.8067 19.7588 12.1602V14.0801C19.7588 14.4335 20.0445 14.7197 20.3965 14.7197H22.3086C22.6606 14.7197 22.9462 14.4335 22.9463 14.0801V12.1602C22.9463 11.8067 22.6606 11.5195 22.3086 11.5195H20.3965ZM31.8252 12.5684C31.8308 12.5701 31.8362 12.5724 31.8418 12.5742C31.8362 12.5724 31.8308 12.5701 31.8252 12.5684ZM31.7012 12.5342C31.7308 12.5414 31.7607 12.549 31.79 12.5576C31.8018 12.5611 31.8135 12.5646 31.8252 12.5684L31.7012 12.5342ZM31.5498 12.5039C31.6006 12.512 31.6511 12.522 31.7012 12.5342C31.6511 12.522 31.6006 12.512 31.5498 12.5039ZM31.4854 12.4951C31.5069 12.4978 31.5284 12.5005 31.5498 12.5039C31.5284 12.5005 31.5069 12.4978 31.4854 12.4951ZM31.4316 12.4883C31.4496 12.49 31.4674 12.4929 31.4854 12.4951C31.4373 12.4892 31.3891 12.4847 31.3408 12.4824L31.4316 12.4883ZM3.82422 2.55957C3.12028 2.55964 2.54989 3.13303 2.5498 3.83984V8.95996C2.5498 9.66684 3.12023 10.2402 3.82422 10.2402H8.92383C9.6277 10.24 10.1982 9.66676 10.1982 8.95996V3.83984C10.1982 3.13311 9.62765 2.55977 8.92383 2.55957H3.82422ZM22.9463 2.55957C22.2423 2.55957 21.671 3.13299 21.6709 3.83984V8.95996C21.6709 9.66689 22.2422 10.2402 22.9463 10.2402H28.0449C28.749 10.2402 29.3203 9.66689 29.3203 8.95996V3.83984C29.3202 3.13299 28.7489 2.55957 28.0449 2.55957H22.9463Z" fill="url(#paint0_linear_1_4150)"/>
<path d="M29.9077 13.034C30.6476 12.2955 31.8475 12.2955 32.5875 13.034C33.3274 13.7725 33.3274 14.9701 32.5875 15.7086L21.4668 26.808C20.5154 27.7575 18.9729 27.7575 18.0215 26.808L13.9382 22.7327C13.1983 21.9942 13.1983 20.7965 13.9382 20.058C14.6782 19.3195 15.8781 19.3195 16.618 20.058L19.7441 23.1783L29.9077 13.034Z" fill="url(#paint1_linear_1_4150)"/>
<defs>
<linearGradient id="paint0_linear_1_4150" x1="-8.48776" y1="32" x2="40.0729" y2="29.8573" gradientUnits="userSpaceOnUse">
<stop stop-color="#0033DB"/>
<stop offset="1" stop-color="#D53CFB"/>
</linearGradient>
<linearGradient id="paint1_linear_1_4150" x1="5.20915" y1="38.284" x2="44.0848" y2="31.9703" gradientUnits="userSpaceOnUse">
<stop stop-color="#D53CFB"/>
<stop offset="1" stop-color="#FFC628"/>
</linearGradient>
</defs>
</svg>
